<svg width="25" height="25" viewBox="0 0 25 25" fill="none" xmlns="http://www.w3.org/2000/svg">
<g id="&#208;&#187;&#209;&#131;&#208;&#191;&#208;&#176;">
<path id="Union" fill-rule="evenodd" clip-rule="evenodd" d="M16 10C16 13.3137 13.3137 16 10 16C6.68629 16 4 13.3137 4 10C4 6.68629 6.68629 4 10 4C13.3137 4 16 6.68629 16 10ZM14.8941 18.7226C13.4474 19.536 11.7779 20 10 20C4.47715 20 0 15.5228 0 10C0 4.47715 4.47715 0 10 0C15.5228 0 20 4.47715 20 10C20 12.2954 19.2266 14.4101 17.9263 16.0979L25.4142 23.5858L22.5858 26.4142L14.8941 18.7226Z" fill="white"/>
</g>
</svg>
