<svg width="168" height="74" viewBox="0 0 168 74" fill="none" xmlns="http://www.w3.org/2000/svg">
<path fill-rule="evenodd" clip-rule="evenodd" d="M69.4855 0H76.6305H91.7298H95.9003V7.25211L90.8636 17.6188H83.1693H76.6305V26.8109H69.4855V17.6188V10.3667V7.25211V0ZM88.206 7.25211H76.6305V10.3667H86.6929L88.206 7.25211Z" fill="white"/>
<path fill-rule="evenodd" clip-rule="evenodd" d="M95.9001 0H103.045H118.144H122.315V7.25211L117.278 17.6188H117.249L121.715 26.8109H114.021L109.555 17.6188H103.045V26.8109H95.9001V17.6188V10.3667V7.25211V0ZM114.621 7.25211H103.045V10.3667H109.555H113.108L114.621 7.25211Z" fill="white"/>
<path fill-rule="evenodd" clip-rule="evenodd" d="M128.86 7.25211V19.5586H140.985V7.25211H128.86ZM140.985 0H148.13V7.25211V19.5586L140.985 26.8109H128.86H121.715V19.5586V7.25211L128.86 0H140.985V0Z" fill="white"/>
<path fill-rule="evenodd" clip-rule="evenodd" d="M76.6305 43.2557V46.3701H81.0038H88.7553V43.2557H76.6305ZM76.6305 53.6223V62.8143H69.4854V53.6223V46.3701V43.2557L76.6305 36.0034H88.7553H95.9003V43.2557V46.3701V47.6944V53.6223V55.5622V62.8143H88.7553V53.6223H81.0038H76.6305Z" fill="#D42E12"/>
<path fill-rule="evenodd" clip-rule="evenodd" d="M108.025 36.0029H115.17V55.5617L108.025 62.8138H95.9002H88.7552V55.5617V47.6939V36.0029H95.9002V47.6939V55.5617H108.025V36.0029Z" fill="#D42E12"/>
<path fill-rule="evenodd" clip-rule="evenodd" d="M124.805 36.0029H131.95H134.44H141.585V43.2552H131.95V47.6939V55.5617V62.8138H124.805V47.6939V43.2552H115.17V36.0029H124.805Z" fill="#D42E12"/>
<path fill-rule="evenodd" clip-rule="evenodd" d="M148.73 43.2552V55.5617H160.855V43.2552H148.73ZM160.855 36.0029H168V43.2552V55.5617L160.855 62.8138H148.73H141.585V55.5617V43.2552L148.73 36.0029H160.855Z" fill="#D42E12"/>
<path d="M62.3401 0H55.1951V62.8138H62.3401V0Z" fill="#D42E12"/>
<path fill-rule="evenodd" clip-rule="evenodd" d="M55.1952 0H35.4975L17.1577 15.4642L12.2637 11.2964H1.18085L6.24399 16.4352H11.3073L39.5769 24.9339L32.1219 19.5754H55.1952V0Z" fill="white"/>
<path fill-rule="evenodd" clip-rule="evenodd" d="M11.5327 22.0895L26.9471 32.9385L14.7955 31.5682L9.39606 22.0137L11.5327 22.0895Z" fill="white"/>
<path fill-rule="evenodd" clip-rule="evenodd" d="M55.1952 41.2746H12.3766L34.8793 57.4909H5.85071L0 31.9102V62.8134H16.202V61.4596H55.1952V41.2746Z" fill="white"/>
<path fill-rule="evenodd" clip-rule="evenodd" d="M55.1953 33.3363L28.1248 33.0508L45.36 35.0148H55.1953V33.3363Z" fill="white"/>
<path d="M7.98594 68.772V70.0791H2.68049C2.3208 70.0791 2.04895 70.2108 1.86524 70.474C1.70318 70.7013 1.62122 71.0053 1.62122 71.3878C1.62122 71.7717 1.70318 72.0742 1.86524 72.2983C2.04895 72.5617 2.3208 72.6932 2.68049 72.6932H7.98594V74.0003H2.47667C1.6738 74.0003 1.06081 73.7699 0.636179 73.3092C0.211544 72.8484 0 72.209 0 71.3878C0 70.565 0.211544 69.924 0.636179 69.4632C1.06081 69.0024 1.6738 68.772 2.47667 68.772H7.98594ZM11.7025 72.7685H17.0868V74.0003H11.5002C10.6974 74.0003 10.0844 73.7699 9.66129 73.3092C9.23665 72.8484 9.02511 72.209 9.02511 71.3878C9.02511 70.565 9.23665 69.924 9.66129 69.4632C10.0844 69.0024 10.6974 68.772 11.5002 68.772H17.0868V70.0039H11.7025C11.42 70.0039 11.1837 70.0854 10.9969 70.2469C10.9135 70.3205 10.8008 70.4928 10.6633 70.7609L10.6541 70.7937H17.0868V71.9691H10.6541L10.6633 71.9974C10.7869 72.2669 10.8981 72.441 10.9969 72.5208C11.1837 72.6853 11.42 72.7685 11.7025 72.7685ZM26.3065 68.772V70.0791H22.9913V74.0003H21.4442V70.0791H18.1291V68.772H26.3065ZM33.8447 72.7685C34.1704 72.7685 34.3326 72.6368 34.3326 72.3735C34.3326 72.104 34.1704 71.9691 33.8447 71.9691H28.8943V72.7685H33.8447ZM28.8943 68.772V70.7937H34.2508C34.7511 70.7937 35.1479 70.9332 35.4412 71.2121C35.733 71.4912 35.8798 71.8845 35.8798 72.3923C35.8798 72.9 35.7346 73.2967 35.4458 73.5772C35.1556 73.8592 34.7572 74.0003 34.2508 74.0003H27.3472V68.772H28.8943ZM43.4706 70.0039V68.772H49.6499C50.2614 68.772 50.7463 68.935 51.1013 69.2626C51.3253 69.4616 51.4782 69.6967 51.5585 69.9662C51.6124 70.1668 51.6403 70.4506 51.6403 70.8141V74.0003H44.7366C44.2333 74.0003 43.8349 73.8592 43.5447 73.5772C43.2529 73.2967 43.1077 72.9 43.1077 72.3923C43.1077 71.8845 43.2544 71.4912 43.5493 71.2121C43.8427 70.9332 44.2395 70.7937 44.7366 70.7937H50.0931V70.7436C50.0931 70.355 49.951 70.1199 49.6685 70.0399C49.5805 70.0165 49.4477 70.0039 49.2701 70.0039H43.4706ZM50.0931 72.7685V71.9691H45.1473C44.8186 71.9691 44.6548 72.104 44.6548 72.3735C44.6548 72.6368 44.8186 72.7685 45.1473 72.7685H50.0931ZM52.6794 68.772H59.5831C60.0895 68.772 60.4878 68.9131 60.7781 69.1967C61.0668 69.4805 61.212 69.8754 61.212 70.3831C61.212 70.7968 61.1163 71.1338 60.9264 71.3972C61.1163 71.6541 61.212 71.9864 61.212 72.3939C61.212 72.9016 61.0668 73.2967 60.7781 73.5787C60.4878 73.8592 60.0895 74.0003 59.5831 74.0003H52.6794V68.772ZM59.177 72.7685C59.5026 72.7685 59.6649 72.6368 59.6649 72.3735C59.6649 72.1228 59.5227 71.988 59.2402 71.9691H54.2266V72.7685H59.177ZM54.2266 70.0039V70.7937H59.177C59.5026 70.8 59.6649 70.6685 59.6649 70.3988C59.6649 70.1356 59.5026 70.0039 59.177 70.0039H54.2266ZM70.4301 68.772V70.0791H67.115V74.0003H65.5678V70.0791H62.2527V68.772H70.4301ZM73.3886 68.772H78.3543C78.8855 68.772 79.3378 68.9617 79.7116 69.3409C80.0852 69.7203 80.272 70.1794 80.272 70.7185V72.0537C80.272 72.5866 80.0852 73.0443 79.7116 73.4266C79.3378 73.8091 78.8855 74.0003 78.3543 74.0003H73.3886C72.8636 74.0003 72.4127 73.8091 72.036 73.4266C71.6592 73.0443 71.4708 72.5866 71.4708 72.0537V70.7185C71.4708 70.1794 71.6592 69.7203 72.036 69.3409C72.4127 68.9617 72.8636 68.772 73.3886 68.772ZM73.0643 70.7937V71.9034C73.0643 72.1228 73.1415 72.3124 73.2943 72.4676C73.4488 72.6243 73.634 72.7026 73.8518 72.7026H77.817C78.0347 72.7026 78.22 72.6243 78.3744 72.4676C78.5272 72.3124 78.6044 72.1228 78.6044 71.9034V70.7937C78.6044 70.5743 78.5272 70.3847 78.3744 70.2296C78.22 70.0728 78.0347 69.9945 77.817 69.9945H73.8518C73.634 69.9945 73.4488 70.0728 73.2943 70.2296C73.1415 70.3847 73.0643 70.5743 73.0643 70.7937ZM90.4676 68.772H92.0425V74.0003H90.4954V70.369C90.4768 70.3815 90.4227 70.4224 90.3301 70.4913C90.239 70.5603 90.1263 70.6449 89.9951 70.7436C89.8639 70.8439 89.7217 70.9521 89.5659 71.0696C89.4114 71.1872 89.2617 71.3016 89.118 71.4098C88.9744 71.5177 88.8463 71.6166 88.7321 71.7028C88.6178 71.7905 88.5344 71.8547 88.4834 71.894C88.4047 71.9582 88.3214 72.0194 88.2318 72.0804C88.1421 72.1401 88.0526 72.1948 87.9631 72.2451C87.872 72.2951 87.7824 72.3407 87.6945 72.3797C87.6049 72.4205 87.5199 72.4519 87.4381 72.4769C87.3563 72.5051 87.2714 72.5256 87.1834 72.5412C87.0937 72.5569 87.0119 72.5679 86.9363 72.5726C86.8483 72.5819 86.7634 72.5882 86.6783 72.5913C86.5934 72.5882 86.5085 72.5819 86.4205 72.5726C86.3449 72.5679 86.263 72.5569 86.1734 72.5412C86.0854 72.5256 86.0005 72.5051 85.9187 72.4769C85.755 72.4253 85.5806 72.3469 85.3922 72.2435C85.2038 72.1385 85.0293 72.0225 84.8688 71.894C84.8177 71.8547 84.7359 71.7905 84.6201 71.7012C84.5058 71.6119 84.3762 71.5132 84.231 71.4019C84.0874 71.2922 83.9361 71.1793 83.7801 71.0634C83.6227 70.9458 83.479 70.8392 83.3477 70.7389C83.2166 70.6402 83.1054 70.5556 83.0159 70.4865C82.9248 70.4176 82.8738 70.3784 82.8614 70.369V74.0003H81.3143V68.772H82.8892L85.7534 70.916C85.843 70.9835 85.9389 71.0445 86.0377 71.0993C86.1256 71.1464 86.2245 71.1888 86.3341 71.2263C86.4453 71.264 86.5596 71.2844 86.6814 71.2844C86.7988 71.2844 86.9115 71.264 87.0227 71.2263C87.1323 71.1888 87.2312 71.1464 87.3191 71.0993C87.418 71.0445 87.5152 70.9835 87.608 70.916L90.4676 68.772ZM93.4477 70.0039V68.772H99.627C100.238 68.772 100.723 68.935 101.078 69.2626C101.302 69.4616 101.455 69.6967 101.536 69.9662C101.59 70.1668 101.617 70.4506 101.617 70.8141V74.0003H94.7138C94.2104 74.0003 93.8121 73.8592 93.5218 73.5772C93.23 73.2967 93.0848 72.9 93.0848 72.3923C93.0848 71.8845 93.2315 71.4912 93.5264 71.2121C93.8198 70.9332 94.2166 70.7937 94.7138 70.7937H100.07V70.7436C100.07 70.355 99.9281 70.1199 99.6456 70.0399C99.5576 70.0165 99.4248 70.0039 99.2473 70.0039H93.4477ZM100.07 72.7685V71.9691H95.1245C94.7957 71.9691 94.632 72.104 94.632 72.3735C94.632 72.6368 94.7957 72.7685 95.1245 72.7685H100.07ZM104.204 74.0003H102.657V68.772H110.826V70.0039H104.204V74.0003ZM112.23 70.0039V68.772H118.409C119.021 68.772 119.506 68.935 119.861 69.2626C120.085 69.4616 120.238 69.6967 120.318 69.9662C120.372 70.1668 120.4 70.4506 120.4 70.8141V74.0003H113.496C112.993 74.0003 112.594 73.8592 112.304 73.5772C112.012 73.2967 111.867 72.9 111.867 72.3923C111.867 71.8845 112.014 71.4912 112.309 71.2121C112.602 70.9332 112.999 70.7937 113.496 70.7937H118.853V70.7436C118.853 70.355 118.71 70.1199 118.428 70.0399C118.34 70.0165 118.207 70.0039 118.03 70.0039H112.23ZM118.853 72.7685V71.9691H113.907C113.578 71.9691 113.414 72.104 113.414 72.3735C113.414 72.6368 113.578 72.7685 113.907 72.7685H118.853ZM121.44 72.7685H127.936C128.262 72.7685 128.424 72.6368 128.424 72.3735C128.424 72.1228 128.282 71.988 128 71.9691H122.688V70.7937H127.936C128.262 70.8 128.424 70.6685 128.424 70.3988C128.424 70.1356 128.262 70.0039 127.936 70.0039H121.44V68.772H128.342C128.849 68.772 129.247 68.9131 129.537 69.1967C129.826 69.4805 129.971 69.8754 129.971 70.3831C129.971 70.7968 129.876 71.1338 129.686 71.3972C129.876 71.6541 129.971 71.9864 129.971 72.3939C129.971 72.9016 129.826 73.2967 129.537 73.5787C129.247 73.8592 128.849 74.0003 128.342 74.0003H121.44V72.7685ZM132.848 74.0003C132.216 74.0003 131.753 73.8342 131.457 73.502C131.159 73.1697 131.011 72.8045 131.011 72.4033V68.772H132.558V72.1385C132.558 72.5083 132.737 72.6932 133.097 72.6932H137.783V68.772H139.33V74.0003H132.848ZM148.579 68.772V74.0003H147.032V71.9691H141.918V74.0003H140.371V68.772H141.918V70.7937H147.032V68.772H148.579ZM151.539 68.772H156.505C157.036 68.772 157.488 68.9617 157.862 69.3409C158.236 69.7203 158.423 70.1794 158.423 70.7185V72.0537C158.423 72.5866 158.236 73.0443 157.862 73.4266C157.488 73.8091 157.036 74.0003 156.505 74.0003H151.539C151.014 74.0003 150.563 73.8091 150.187 73.4266C149.81 73.0443 149.621 72.5866 149.621 72.0537V70.7185C149.621 70.1794 149.81 69.7203 150.187 69.3409C150.563 68.9617 151.014 68.772 151.539 68.772ZM151.215 70.7937V71.9034C151.215 72.1228 151.292 72.3124 151.445 72.4676C151.599 72.6243 151.785 72.7026 152.002 72.7026H155.967C156.185 72.7026 156.37 72.6243 156.525 72.4676C156.678 72.3124 156.755 72.1228 156.755 71.9034V70.7937C156.755 70.5743 156.678 70.3847 156.525 70.2296C156.37 70.0728 156.185 69.9945 155.967 69.9945H152.002C151.785 69.9945 151.599 70.0728 151.445 70.2296C151.292 70.3847 151.215 70.5743 151.215 70.7937ZM159.465 68.772H166.368C166.875 68.772 167.273 68.9131 167.563 69.1967C167.852 69.4805 167.997 69.8754 167.997 70.3831C167.997 70.7968 167.902 71.1338 167.712 71.3972C167.902 71.6541 167.997 71.9864 167.997 72.3939C167.997 72.9016 167.852 73.2967 167.563 73.5787C167.273 73.8592 166.875 74.0003 166.368 74.0003H159.465V68.772ZM165.962 72.7685C166.288 72.7685 166.45 72.6368 166.45 72.3735C166.45 72.1228 166.308 71.988 166.026 71.9691H161.012V72.7685H165.962ZM161.012 70.0039V70.7937H165.962C166.288 70.8 166.45 70.6685 166.45 70.3988C166.45 70.1356 166.288 70.0039 165.962 70.0039H161.012Z" fill="white"/>
</svg>
